<svg xmlns="http://www.w3.org/2000/svg" viewBox="0 0 9983 3156"><rect width="9983" height="3156" rx="0" fill="#f4f6f2"/><g transform="rotate(8 775 2593)"><rect x="721" y="626" width="108" height="1967" rx="54" fill="#16211b"/><path d="M829,665 C1132,583 1365,795 1694,937 C1383,1031 1123,1302 829,1255 Z" fill="#16211b"/><path d="M829,866 C1089,795 1305,937 1521,919 L1573,960 C1331,996 1089,860 829,931 Z" fill="#f0b400"/></g><path d="M536.4,2592.6 L593.9,2592.6 C594.6,2522.3 578.3,2470.8 578.7,2436.4 C554.5,2483.3 537.5,2537.9 536.4,2592.6 Z" fill="#3f9566"/><path d="M566.9,2592.6 L622.1,2592.6 C620.5,2500.0 582.4,2432.2 562.5,2386.9 C552.8,2448.6 564.3,2520.6 566.9,2592.6 Z" fill="#3f9566"/><path d="M598.1,2592.6 L643.4,2592.6 C641.2,2503.5 601.2,2438.1 577.0,2394.5 C574.3,2454.0 594.6,2523.3 598.1,2592.6 Z" fill="#2f8a57"/><path d="M622.9,2592.6 L674.0,2592.6 C675.1,2498.1 666.0,2428.8 671.1,2382.6 C646.5,2445.6 624.7,2519.1 622.9,2592.6 Z" fill="#3f9566"/><path d="M655.2,2592.6 L697.7,2592.6 C698.7,2511.2 691.9,2451.5 696.8,2411.6 C675.9,2465.9 656.9,2529.3 655.2,2592.6 Z" fill="#2f8a57"/><path d="M681.0,2592.6 L737.6,2592.6 C735.1,2543.8 686.9,2508.1 658.4,2484.3 C653.8,2516.8 676.9,2554.7 681.0,2592.6 Z" fill="#2f8a57"/><path d="M714.7,2592.6 L757.9,2592.6 C758.7,2529.3 750.1,2482.9 753.6,2451.9 C733.3,2494.1 716.1,2543.4 714.7,2592.6 Z" fill="#1d6a44"/><path d="M739.2,2592.6 L787.6,2592.6 C788.9,2519.7 782.6,2466.2 789.5,2430.6 C764.8,2479.2 741.3,2535.9 739.2,2592.6 Z" fill="#5fa37a"/><path d="M764.4,2592.6 L805.4,2592.6 C808.4,2516.8 821.6,2461.3 844.1,2424.3 C812.0,2474.8 769.2,2533.7 764.4,2592.6 Z" fill="#5fa37a"/><path d="M785.0,2592.6 L825.8,2592.6 C824.8,2534.6 798.6,2492.1 785.6,2463.8 C777.3,2502.4 783.5,2547.5 785.0,2592.6 Z" fill="#2f8a57"/><path d="M806.2,2592.6 L864.4,2592.6 C864.0,2500.5 836.8,2433.0 827.5,2388.0 C809.5,2449.4 805.6,2521.0 806.2,2592.6 Z" fill="#2f8a57"/><path d="M834.3,2592.6 L881.0,2592.6 C878.6,2496.1 835.4,2425.3 808.8,2378.1 C807.1,2442.4 830.4,2517.5 834.3,2592.6 Z" fill="#3f9566"/><path d="M858.8,2592.6 L911.4,2592.6 C909.8,2516.0 873.3,2459.9 854.2,2422.4 C845.0,2473.5 856.3,2533.0 858.8,2592.6 Z" fill="#5fa37a"/><path d="M882.8,2592.6 L937.1,2592.6 C940.2,2528.9 950.1,2482.3 973.2,2451.1 C935.2,2493.6 887.9,2543.1 882.8,2592.6 Z" fill="#2f8a57"/><path d="M908.2,2592.6 L956.7,2592.6 C954.0,2508.2 907.6,2446.4 878.4,2405.1 C877.7,2461.4 903.9,2527.0 908.2,2592.6 Z" fill="#3f9566"/><path d="M931.2,2592.6 L974.3,2592.6 C974.3,2516.4 956.9,2460.5 952.5,2423.3 C937.5,2474.1 931.2,2533.3 931.2,2592.6 Z" fill="#1d6a44"/><path d="M953.8,2592.6 L1012.6,2592.6 C1012.3,2526.1 985.4,2477.4 976.4,2444.9 C957.9,2489.2 953.3,2540.9 953.8,2592.6 Z" fill="#2f8a57"/><path d="M982.8,2592.6 L1028.2,2592.6 C1030.3,2493.6 1033.9,2421.1 1048.9,2372.7 C1020.1,2438.7 986.3,2515.6 982.8,2592.6 Z" fill="#2f8a57"/><path d="M1004.7,2592.6 L1056.7,2592.6 C1059.1,2525.5 1063.2,2476.3 1080.4,2443.6 C1047.3,2488.3 1008.7,2540.4 1004.7,2592.6 Z" fill="#2f8a57"/><path d="M1028.0,2592.6 L1067.5,2592.6 C1067.5,2539.2 1051.1,2500.1 1046.7,2474.0 C1033.2,2509.6 1027.9,2551.1 1028.0,2592.6 Z" fill="#5fa37a"/><path d="M1051.9,2592.6 L1095.4,2592.6 C1093.1,2526.0 1052.6,2477.1 1027.5,2444.6 C1026.1,2489.0 1048.3,2540.8 1051.9,2592.6 Z" fill="#1d6a44"/><path d="M1071.2,2592.6 L1113.0,2592.6 C1114.1,2526.9 1107.9,2478.8 1113.3,2446.7 C1092.3,2490.5 1072.9,2541.5 1071.2,2592.6 Z" fill="#3f9566"/><path d="M1096.6,2592.6 L1148.2,2592.6 C1147.9,2539.8 1123.3,2501.1 1114.6,2475.3 C1098.8,2510.5 1095.9,2551.6 1096.6,2592.6 Z" fill="#5fa37a"/><path d="M1128.7,2592.6 L1171.8,2592.6 C1170.5,2502.1 1141.0,2435.7 1125.6,2391.5 C1117.9,2451.8 1126.7,2522.2 1128.7,2592.6 Z" fill="#1d6a44"/><path d="M1153.6,2592.6 L1194.4,2592.6 C1194.6,2525.9 1180.3,2476.9 1178.0,2444.3 C1162.5,2488.8 1153.9,2540.7 1153.6,2592.6 Z" fill="#2f8a57"/><path d="M1172.4,2592.6 L1216.4,2592.6 C1219.6,2545.2 1233.5,2510.4 1257.4,2487.3 C1223.1,2518.9 1177.4,2555.7 1172.4,2592.6 Z" fill="#3f9566"/><path d="M1194.0,2592.6 L1239.1,2592.6 C1240.0,2501.8 1231.0,2435.2 1234.6,2390.8 C1213.4,2451.3 1195.5,2522.0 1194.0,2592.6 Z" fill="#1d6a44"/><path d="M1222.3,2592.6 L1271.0,2592.6 C1269.0,2493.3 1229.6,2420.5 1206.9,2371.9 C1201.7,2438.1 1219.1,2515.4 1222.3,2592.6 Z" fill="#2f8a57"/><path d="M1246.5,2592.6 L1286.1,2592.6 C1284.6,2496.6 1253.6,2426.2 1236.0,2379.3 C1231.2,2443.3 1244.0,2517.9 1246.5,2592.6 Z" fill="#5fa37a"/><path d="M1267.2,2592.6 L1312.0,2592.6 C1309.6,2533.6 1266.8,2490.3 1240.0,2461.4 C1239.2,2500.8 1263.2,2546.7 1267.2,2592.6 Z" fill="#1d6a44"/><path d="M1287.7,2592.6 L1333.6,2592.6 C1333.6,2539.7 1315.3,2500.9 1310.7,2475.0 C1294.6,2510.3 1287.7,2551.4 1287.7,2592.6 Z" fill="#1d6a44"/><path d="M1313.3,2592.6 L1359.7,2592.6 C1359.8,2496.3 1342.8,2425.6 1339.6,2378.5 C1322.4,2442.7 1313.6,2517.7 1313.3,2592.6 Z" fill="#5fa37a"/><path d="M1342.7,2592.6 L1391.5,2592.6 C1392.6,2546.2 1384.5,2512.1 1389.9,2489.4 C1366.0,2520.4 1344.5,2556.5 1342.7,2592.6 Z" fill="#5fa37a"/><path d="M1367.2,2592.6 L1417.3,2592.6 C1415.0,2492.1 1372.0,2418.3 1346.2,2369.2 C1342.5,2436.2 1363.6,2514.4 1367.2,2592.6 Z" fill="#2f8a57"/><path d="M1398.3,2592.6 L1453.2,2592.6 C1454.8,2506.6 1448.4,2443.5 1456.9,2401.4 C1428.4,2458.8 1400.8,2525.7 1398.3,2592.6 Z" fill="#5fa37a"/><path d="M1426.3,2592.6 L1482.8,2592.6 C1485.6,2509.4 1490.7,2448.5 1510.0,2407.8 C1473.6,2463.2 1430.8,2527.9 1426.3,2592.6 Z" fill="#3f9566"/><path d="M1461.8,2592.6 L1501.5,2592.6 C1501.8,2545.7 1489.0,2511.2 1487.8,2488.3 C1472.1,2519.6 1462.3,2556.1 1461.8,2592.6 Z" fill="#3f9566"/><path d="M1482.3,2592.6 L1523.4,2592.6 C1521.1,2546.7 1481.4,2513.0 1456.4,2490.5 C1455.9,2521.1 1478.6,2556.9 1482.3,2592.6 Z" fill="#2f8a57"/><path d="M1508.5,2592.6 L1555.5,2592.6 C1557.2,2498.7 1555.5,2429.8 1566.2,2383.9 C1539.5,2446.5 1511.3,2519.5 1508.5,2592.6 Z" fill="#3f9566"/><path d="M1533.4,2592.6 L1587.4,2592.6 C1585.2,2501.0 1541.0,2433.8 1515.4,2389.0 C1510.0,2450.1 1529.8,2521.3 1533.4,2592.6 Z" fill="#2f8a57"/><path d="M1560.5,2592.6 L1618.7,2592.6 C1616.0,2542.5 1566.5,2505.7 1537.0,2481.2 C1532.4,2514.6 1556.3,2553.6 1560.5,2592.6 Z" fill="#2f8a57"/><g transform="translate(2303,2593) scale(1,-1)"><path transform="translate(0,0)" d="M80 0H496V466H682L905 0H1338L1065 556C1210 642 1292 785 1292 970C1292 1289 1069 1490 713 1490H80ZM496 788V1152H682C807 1152 886 1079 886 970C886 861 807 788 682 788Z" fill="#16211b"/><path transform="translate(1335,0)" d="M764 -24C1169 -24 1488 247 1488 744C1488 1242 1169 1514 764 1514C357 1514 40 1242 40 744C40 250 357 -24 764 -24ZM764 336C569 336 460 487 460 744C460 1002 569 1154 764 1154C960 1154 1068 1002 1068 744C1068 487 960 336 764 336Z" fill="#16211b"/><path transform="translate(2835,0)" d="M764 -24C1169 -24 1488 247 1488 744C1488 1242 1169 1514 764 1514C357 1514 40 1242 40 744C40 250 357 -24 764 -24ZM764 336C569 336 460 487 460 744C460 1002 569 1154 764 1154C960 1154 1068 1002 1068 744C1068 487 960 336 764 336Z" fill="#16211b"/><path transform="translate(4335,0)" d="M40 1138H464V0H880V1138H1304V1490H40Z" fill="#16211b"/><path transform="translate(5651,0)" d="M704 -24C1108 -24 1339 154 1339 466C1339 704 1194 836 852 899L732 921C577 949 510 987 510 1058C510 1133 592 1186 709 1186C833 1186 916 1122 926 1018H1308C1298 1330 1073 1514 701 1514C339 1514 92 1321 92 1038C92 817 248 664 536 609L684 581C852 549 928 507 928 435C928 357 840 304 709 304C558 304 463 375 457 496H64C64 161 291 -24 704 -24Z" fill="#16211b"/></g></svg>