<svg xmlns="http://www.w3.org/2000/svg" viewBox="0 0 512 512"><rect width="512" height="512" rx="112" fill="#1d6a44"/><g transform="translate(92,376) scale(0.1617,-0.1617)"><g transform="translate(447,0)"><path d="M0,0 L253,0 C231,389 -94,674 -320,864 C-275,605 -36,302 0,0 Z" fill="rgba(255,255,255,.5)"/><path d="M194,0 L462,0 C451,563 240,976 119,1252 C88,876 177,438 194,0 Z" fill="rgba(255,255,255,.82)"/><path d="M641,0 L909,0 C922,536 949,930 1043,1192 C869,834 662,417 641,0 Z" fill="rgba(255,255,255,.82)"/><path d="M849,0 L1103,0 C1126,375 1264,651 1453,834 C1221,584 887,292 849,0 Z" fill="rgba(255,255,255,.5)"/><path d="M402,0 L700,0 C703,670 614,1162 611,1490 C489,1043 407,522 402,0 Z" fill="#f0b400"/></g></g></svg>